#!OML:ASF H:\Pregnant\Project 1\Capture day 1\Session 1\femalepreg.ASF
:FULLY-SPECIFIED
:DEGREES
658
root 14.5412 16.0196 -25.4991 -156.44 138.164 -177.101
lowerback -10.9675 -3.42865 -12.6974
upperback -5.36292 -3.08523 -3.10694
thorax 0.935389 -1.30207 3.45866
lowerneck -13.3892 -9.45585 -4.66523
upperneck 22.5213 -16.022 15.1674
head 11.2333 -6.05957 3.92006
rclavicle -1.37559e-013 -3.33958e-014
rhumerus -35.469 2.50621 -87.8879
rradius 31.2908
rwrist -4.90413
rhand -9.08272 -13.2016
rfingers 7.12502
rthumb 16.8668 -42.4891
lclavicle -1.37559e-013 -3.33958e-014
lhumerus -19.1602 -8.35355 75.1882
lradius 39.2125
lwrist 49.1042
lhand -22.0122 -8.79632
lfingers 7.12502
lthumb 4.39702 21.138
rfemur -55.9776 7.58843 22.7861
rtibia 42.0577
rfoot -10.5444 -6.61386
rtoes -16.4357
lfemur -21.8341 0.201014 -28.5206
ltibia 19.8173
lfoot -15.1895 0.48211
ltoes -22.0071
659
root 14.6112 16.023 -25.4401 -156.355 138.31 -177.027
lowerback -11.011 -3.46316 -12.9012
upperback -5.26427 -3.10022 -2.96447
thorax 1.08146 -1.31823 3.71347
lowerneck -13.6819 -9.51018 -4.78262
upperneck 22.6054 -16.0438 14.994
head 11.3167 -6.07921 3.86056
rclavicle 4.17448e-014 -2.8625e-014
rhumerus -35.2542 3.05805 -87.9947
rradius 31.5472
rwrist -5.11216
rhand -9.1456 -13.1745
rfingers 7.12502
rthumb 16.8063 -42.4671
lclavicle 4.17448e-014 -2.8625e-014
lhumerus -19.0932 -8.4418 75.6419
lradius 39.2553
lwrist 48.7773
lhand -21.8385 -9.01369
lfingers 7.12502
lthumb 4.56472 20.9171
rfemur -56.0871 7.77378 22.7901
rtibia 40.6066
rfoot -10.5819 -7.14636
rtoes -16.7939
lfemur -20.9275 0.379451 -28.6713
ltibia 18.761
lfoot -15.0038 0.440558
ltoes -22.6834
660
root 14.6816 16.0255 -25.3794 -156.3 138.446 -176.978
lowerback -11.0574 -3.47003 -13.0324
upperback -5.16007 -3.08404 -2.85908
thorax 1.22581 -1.32089 3.89384
lowerneck -13.9794 -9.59346 -4.85547
upperneck 22.7083 -16.1203 14.8227
head 11.4116 -6.1181 3.7852
rclavicle 2.64384e-014 3.18055e-015
rhumerus -35.0388 3.50411 -88.1132
rradius 31.7899
rwrist -5.30628
rhand -9.2271 -13.1406
rfingers 7.12502
rthumb 16.7278 -42.4399
lclavicle 2.64384e-014 3.18055e-015
lhumerus -19.029 -8.66693 76.0615
lradius 39.2602
lwrist 48.4402
lhand -21.6825 -9.24307
lfingers 7.12502
lthumb 4.71537 20.6845
rfemur -56.1781 8.00659 22.773
rtibia 39.2212
rfoot -10.7076 -7.76529
rtoes -16.6219
lfemur -19.9903 0.560297 -28.7945
ltibia 17.6819
lfoot -14.795 0.351904
ltoes -23.2119
661
root 14.7524 16.0268 -25.3171 -156.251 138.578 -176.934
lowerback -11.1139 -3.49896 -13.139
upperback -5.08527 -3.10059 -2.73611
thorax 1.34965 -1.33792 4.07524
lowerneck -14.1903 -9.64615 -4.97527
upperneck 22.8037 -16.1418 14.6639
head 11.4849 -6.14024 3.73486
rclavicle 4.67144e-014 4.6118e-014
rhumerus -34.8792 3.99104 -88.2322
rradius 32.0276
rwrist -5.47178
rhand -9.27756 -13.128
rfingers 7.12502
rthumb 16.6792 -42.4314
lclavicle 4.67144e-014 4.6118e-014
lhumerus -19.0765 -8.87198 76.4733
lradius 39.2369
lwrist 48.0719
lhand -21.5406 -9.48528
lfingers 7.12502
lthumb 4.8524 20.4392
rfemur -56.2692 8.26925 22.7385
rtibia 37.9233
rfoot -10.8875 -8.49879
rtoes -16.3245
lfemur -19.0241 0.728596 -28.9037
ltibia 16.5659
lfoot -14.5564 0.21346
ltoes -23.5252
662
root 14.8238 16.0269 -25.2534 -156.177 138.71 -176.87
lowerback -11.2065 -3.51736 -13.2318
upperback -5.05628 -3.10081 -2.63603
thorax 1.43973 -1.343 4.22694
lowerneck -14.2142 -9.67344 -5.06487
upperneck 22.808 -16.1224 14.5266
head 11.4807 -6.15411 3.7009
rclavicle 5.12864e-014 -1.90833e-014
rhumerus -34.8284 4.43076 -88.3591
rradius 32.2604
rwrist -5.63181
rhand -9.32672 -13.1256
rfingers 7.12502
rthumb 16.6319 -42.433
lclavicle 5.12864e-014 -1.90833e-014
lhumerus -19.2312 -9.1798 76.897
lradius 39.172
lwrist 47.6678
lhand -21.4425 -9.72795
lfingers 7.12502
lthumb 4.94705 20.1943
rfemur -56.3898 8.56771 22.6526
rtibia 36.7366
rfoot -11.1002 -9.37555
rtoes -16.2131
lfemur -18.0214 0.771968 -29.0064
ltibia 15.382
lfoot -14.2528 0.158705
ltoes -23.6974
